<svg width="60" height="60" viewBox="0 0 60 60" fill="none" xmlns="http://www.w3.org/2000/svg">
<circle cx="30" cy="30" r="28.5" fill="white" stroke="#06B1E9" stroke-width="3"/>
<path d="M29.9984 22.2949C27.9545 22.2949 25.9943 23.1069 24.549 24.5522C23.1037 25.9974 22.2917 27.9577 22.2917 30.0016C22.2917 32.0455 23.1037 34.0057 24.549 35.451C25.9943 36.8963 27.9545 37.7083 29.9984 37.7083C32.0424 37.7083 34.0026 36.8963 35.4479 35.451C36.8931 34.0057 37.7051 32.0455 37.7051 30.0016C37.7051 27.9577 36.8931 25.9974 35.4479 24.5522C34.0026 23.1069 32.0424 22.2949 29.9984 22.2949V22.2949ZM29.9984 35.0066C28.6706 35.0066 27.3971 34.4791 26.4582 33.5402C25.5192 32.6012 24.9917 31.3278 24.9917 29.9999C24.9917 28.6721 25.5192 27.3986 26.4582 26.4597C27.3971 25.5207 28.6706 24.9933 29.9984 24.9933C31.3263 24.9933 32.5997 25.5207 33.5387 26.4597C34.4776 27.3986 35.0051 28.6721 35.0051 29.9999C35.0051 31.3278 34.4776 32.6012 33.5387 33.5402C32.5997 34.4791 31.3263 35.0066 29.9984 35.0066V35.0066Z" fill="#752995"/>
<path d="M38.01 23.8082C39.0023 23.8082 39.8067 23.0038 39.8067 22.0115C39.8067 21.0192 39.0023 20.2148 38.01 20.2148C37.0178 20.2148 36.2134 21.0192 36.2134 22.0115C36.2134 23.0038 37.0178 23.8082 38.01 23.8082Z" fill="#752995"/>
<path d="M44.2218 20.1855C43.8359 19.1891 43.2463 18.2843 42.4906 17.5289C41.735 16.7735 40.8299 16.1842 39.8334 15.7988C38.6673 15.3611 37.4354 15.1244 36.1901 15.0988C34.5851 15.0288 34.0768 15.0088 30.0068 15.0088C25.9368 15.0088 25.4151 15.0088 23.8234 15.0988C22.5791 15.1231 21.348 15.3598 20.1834 15.7988C19.1866 16.1838 18.2814 16.7729 17.5256 17.5283C16.7699 18.2838 16.1805 19.1888 15.7951 20.1855C15.3573 21.3515 15.1211 22.5835 15.0968 23.8288C15.0251 25.4321 15.0034 25.9405 15.0034 30.0121C15.0034 34.0821 15.0034 34.6005 15.0968 36.1955C15.1218 37.4421 15.3568 38.6721 15.7951 39.8405C16.1815 40.8367 16.7716 41.7414 17.5275 42.4967C18.2834 43.2521 19.1885 43.8414 20.1851 44.2271C21.3475 44.6824 22.579 44.9361 23.8268 44.9771C25.4318 45.0471 25.9401 45.0688 30.0101 45.0688C34.0801 45.0688 34.6018 45.0688 36.1934 44.9771C37.4386 44.9518 38.6705 44.7157 39.8368 44.2788C40.833 43.8924 41.7378 43.3027 42.4934 42.5471C43.2489 41.7915 43.8387 40.8867 44.2251 39.8905C44.6634 38.7238 44.8984 37.4938 44.9234 36.2471C44.9951 34.6438 45.0167 34.1355 45.0167 30.0638C45.0167 25.9921 45.0168 25.4755 44.9234 23.8805C44.904 22.6176 44.6666 21.3675 44.2218 20.1855V20.1855ZM42.1918 36.0721C42.181 37.0326 42.0057 37.9842 41.6734 38.8855C41.4231 39.5336 41.04 40.1221 40.5485 40.6133C40.0571 41.1044 39.4683 41.4872 38.8201 41.7371C37.9288 42.0679 36.9874 42.2432 36.0368 42.2555C34.4534 42.3288 34.0068 42.3471 29.9468 42.3471C25.8834 42.3471 25.4684 42.3471 23.8551 42.2555C22.905 42.2438 21.964 42.0685 21.0734 41.7371C20.4229 41.4888 19.8318 41.1066 19.3382 40.6154C18.8447 40.1242 18.4598 39.5348 18.2084 38.8855C17.8808 37.9939 17.7056 37.0535 17.6901 36.1038C17.6184 34.5205 17.6018 34.0738 17.6018 30.0138C17.6018 25.9521 17.6018 25.5371 17.6901 23.9221C17.7009 22.9622 17.8762 22.0112 18.2084 21.1105C18.7168 19.7955 19.7584 18.7605 21.0734 18.2571C21.9644 17.9274 22.9051 17.7521 23.8551 17.7388C25.4401 17.6671 25.8851 17.6471 29.9468 17.6471C34.0084 17.6471 34.4251 17.6471 36.0368 17.7388C36.9874 17.7502 37.929 17.9256 38.8201 18.2571C39.4683 18.5076 40.057 18.8908 40.5484 19.3822C41.0397 19.8736 41.423 20.4622 41.6734 21.1105C42.001 22.002 42.1762 22.9424 42.1918 23.8921C42.2634 25.4771 42.2817 25.9221 42.2817 29.9838C42.2817 34.0438 42.2817 34.4805 42.2101 36.0738H42.1918V36.0721Z" fill="#752995"/>
</svg>
