<svg width="60" height="60" viewBox="0 0 60 60" fill="none" xmlns="http://www.w3.org/2000/svg">
<circle cx="30" cy="30" r="28.5" fill="white" stroke="#06B1E9" stroke-width="3"/>
<path d="M42.7216 23.3282C42.7433 23.6199 42.7433 23.9099 42.7433 24.1999C42.7433 33.0749 35.9883 43.3016 23.6433 43.3016C19.8399 43.3016 16.3066 42.1999 13.3333 40.2866C13.8733 40.3482 14.3933 40.3699 14.9549 40.3699C17.9766 40.3772 20.9127 39.3668 23.2899 37.5016C21.889 37.4762 20.5309 37.014 19.4053 36.1795C18.2798 35.3449 17.4429 34.1797 17.0116 32.8466C17.4266 32.9082 17.8433 32.9499 18.2799 32.9499C18.8816 32.9499 19.4866 32.8666 20.0483 32.7216C18.5279 32.4146 17.1607 31.5905 16.1793 30.3894C15.1979 29.1883 14.6627 27.6843 14.6649 26.1332V26.0499C15.5599 26.5482 16.5983 26.8599 17.6983 26.9016C16.7767 26.2892 16.0211 25.4583 15.4988 24.4829C14.9765 23.5075 14.7038 22.418 14.7049 21.3116C14.7049 20.0649 15.0366 18.9216 15.6183 17.9249C17.3051 19.9999 19.4091 21.6975 21.7938 22.9077C24.1785 24.1178 26.7909 24.8136 29.4616 24.9499C29.3583 24.4499 29.2949 23.9316 29.2949 23.4116C29.2945 22.5298 29.4678 21.6567 29.805 20.842C30.1423 20.0273 30.6368 19.287 31.2602 18.6636C31.8837 18.0401 32.624 17.5456 33.4387 17.2084C34.2533 16.8712 35.1265 16.6978 36.0083 16.6982C37.9416 16.6982 39.6866 17.5082 40.9133 18.8182C42.4162 18.5276 43.8575 17.9789 45.1733 17.1966C44.6723 18.7479 43.6229 20.0634 42.2216 20.8966C43.5546 20.7445 44.8573 20.394 46.0866 19.8566C45.1685 21.1951 44.0308 22.3688 42.7216 23.3282V23.3282Z" fill="#752995"/>
</svg>
