<svg width="60" height="60" viewBox="0 0 60 60" fill="none" xmlns="http://www.w3.org/2000/svg">
<circle cx="30" cy="30" r="28.5" fill="white" stroke="#06B1E9" stroke-width="3"/>
<path d="M45.9883 22.0047C45.7985 21.3004 45.4275 20.658 44.9123 20.1416C44.3971 19.6252 43.7556 19.2528 43.0517 19.0614C40.4417 18.3447 30 18.333 30 18.333C30 18.333 19.5601 18.3214 16.9484 19.0064C16.2449 19.2066 15.6048 19.5843 15.0893 20.1032C14.5739 20.6222 14.2005 21.2649 14.0051 21.9697C13.3167 24.5797 13.3101 29.993 13.3101 29.993C13.3101 29.993 13.3034 35.433 13.9867 38.0164C14.3701 39.4447 15.4951 40.573 16.9251 40.958C19.5617 41.6747 29.975 41.6864 29.975 41.6864C29.975 41.6864 40.4167 41.698 43.0267 41.0147C43.7308 40.8236 44.3729 40.452 44.8894 39.9367C45.4059 39.4213 45.779 38.7801 45.9717 38.0764C46.6617 35.468 46.6667 30.0564 46.6667 30.0564C46.6667 30.0564 46.7 24.6147 45.9883 22.0047V22.0047ZM26.66 35.008L26.6684 25.008L35.3467 30.0164L26.66 35.008V35.008Z" fill="#752995"/>
</svg>
