<svg width="50" height="50" viewBox="0 0 50 50" fill="none" xmlns="http://www.w3.org/2000/svg">
<circle cx="25" cy="25" r="23.5" fill="white" stroke="#06B1E9" stroke-width="3"/>
<path d="M34.7083 10.917H20.125C18.5165 10.917 17.2083 12.2251 17.2083 13.8337V21.9799L10.344 28.8443C10.1401 29.0482 10.0012 29.3081 9.945 29.5909C9.88875 29.8738 9.91763 30.1669 10.028 30.4334C10.1383 30.6998 10.3252 30.9275 10.565 31.0878C10.8047 31.248 11.0866 31.3336 11.375 31.3337V38.6253C11.375 39.0121 11.5287 39.383 11.8022 39.6565C12.0756 39.93 12.4466 40.0837 12.8333 40.0837H36.1667C36.5535 40.0837 36.9244 39.93 37.1979 39.6565C37.4714 39.383 37.625 39.0121 37.625 38.6253V13.8337C37.625 12.2251 36.3169 10.917 34.7083 10.917ZM23.0417 37.167H14.2917V29.0207L18.6667 24.6457L23.0417 29.0207V37.167ZM34.7083 37.167H25.9583V31.3337C26.247 31.3343 26.5294 31.2491 26.7696 31.089C27.0099 30.9289 27.1971 30.701 27.3076 30.4343C27.418 30.1675 27.4468 29.874 27.3901 29.5909C27.3335 29.3078 27.194 29.048 26.9894 28.8443L20.125 21.9799V13.8337H34.7083V37.167Z" fill="#06B1E9"/>
<path d="M23.0416 16.75H25.9583V19.6667H23.0416V16.75ZM28.8749 16.75H31.7916V19.6667H28.8749V16.75ZM28.8749 22.6285H31.7916V25.5H28.8749V22.6285ZM28.8749 28.4167H31.7916V31.3333H28.8749V28.4167ZM17.2083 29.875H20.1249V32.7917H17.2083V29.875Z" fill="#06B1E9"/>
</svg>
