<svg width="60" height="60" viewBox="0 0 60 60" fill="none" xmlns="http://www.w3.org/2000/svg">
<circle cx="30" cy="30" r="28.5" fill="white" stroke="#06B1E9" stroke-width="3"/>
<path d="M41.2166 19.0172L39.0833 20.6838L29.9999 27.4338L20.9166 20.6172L18.7833 18.9505C18.2807 18.5347 17.6672 18.2756 17.0187 18.2051C16.3703 18.1346 15.7154 18.2559 15.1353 18.554C14.5551 18.852 14.0751 19.3138 13.7548 19.8819C13.4345 20.4501 13.2879 21.0998 13.3333 21.7505V41.0671C13.3333 41.6683 13.5721 42.2448 13.9971 42.6699C14.4222 43.095 14.9988 43.3338 15.5999 43.3338H20.9166V30.4672L29.9999 37.2838L39.0833 30.4672V43.3338H44.3999C45.0011 43.3338 45.5776 43.095 46.0027 42.6699C46.4278 42.2448 46.6666 41.6683 46.6666 41.0671V21.7505C46.6979 21.1054 46.5411 20.4652 46.2153 19.9075C45.8896 19.3499 45.4088 18.8989 44.8315 18.6094C44.2542 18.3198 43.6053 18.2043 42.9635 18.2766C42.3218 18.349 41.7149 18.6063 41.2166 19.0172V19.0172Z" fill="#752995"/>
</svg>
