<svg width="60" height="60" viewBox="0 0 60 60" fill="none" xmlns="http://www.w3.org/2000/svg">
<circle cx="30" cy="30" r="28.5" fill="white" stroke="#06B1E9" stroke-width="3"/>
<path d="M39.5116 30.4883C39.3569 30.3334 39.1733 30.2105 38.9711 30.1267C38.7689 30.0428 38.5521 29.9997 38.3332 29.9997C38.1143 29.9997 37.8976 30.0428 37.6954 30.1267C37.4932 30.2105 37.3095 30.3334 37.1549 30.4883L34.4982 33.145C33.2666 32.7783 30.9682 31.945 29.5116 30.4883C28.0549 29.0317 27.2216 26.7333 26.8549 25.5017L29.5116 22.845C29.6665 22.6904 29.7894 22.5067 29.8732 22.3045C29.9571 22.1023 30.0002 21.8856 30.0002 21.6667C30.0002 21.4478 29.9571 21.231 29.8732 21.0289C29.7894 20.8267 29.6665 20.643 29.5116 20.4883L22.8449 13.8217C22.6903 13.6668 22.5066 13.5439 22.3044 13.46C22.1022 13.3762 21.8855 13.333 21.6666 13.333C21.4477 13.333 21.2309 13.3762 21.0287 13.46C20.8266 13.5439 20.6429 13.6668 20.4882 13.8217L15.9682 18.3417C15.3349 18.975 14.9782 19.845 14.9916 20.7333C15.0299 23.1067 15.6582 31.35 22.1549 37.8467C28.6516 44.3433 36.8949 44.97 39.2699 45.01H39.3166C40.1966 45.01 41.0282 44.6633 41.6582 44.0333L46.1782 39.5133C46.3331 39.3587 46.456 39.175 46.5399 38.9728C46.6237 38.7706 46.6669 38.5539 46.6669 38.335C46.6669 38.1161 46.6237 37.8994 46.5399 37.6972C46.456 37.495 46.3331 37.3113 46.1782 37.1567L39.5116 30.4883ZM39.2999 41.675C37.2199 41.64 30.1032 41.0817 24.5116 35.4883C18.9016 29.8783 18.3582 22.7367 18.3249 20.6983L21.6666 17.3567L25.9766 21.6667L23.8216 23.8217C23.6257 24.0174 23.4816 24.2589 23.4025 24.5243C23.3233 24.7897 23.3116 25.0706 23.3682 25.3417C23.4082 25.5333 24.3866 30.0783 27.1532 32.845C29.9199 35.6117 34.4649 36.59 34.6566 36.63C34.9275 36.6883 35.2087 36.6774 35.4743 36.5985C35.7399 36.5196 35.9814 36.3751 36.1766 36.1783L38.3332 34.0233L42.6432 38.3333L39.2999 41.675V41.675Z" fill="#752995"/>
</svg>
